<svg width="703" height="219" viewBox="0 0 703 219" fill="none" xmlns="http://www.w3.org/2000/svg">
<rect width="703" height="219" rx="29" fill="black"/>
<path fill-rule="evenodd" clip-rule="evenodd" d="M98.4797 74.7837C87.9935 74.7848 77.8498 77.7421 69.8631 83.1266C61.8765 88.5112 56.568 95.9716 54.8871 104.173C53.2063 112.375 55.2628 120.784 60.6888 127.894C66.1147 135.004 74.5562 140.353 84.5032 142.984C86.7117 143.309 87.6581 142.234 87.6581 141.309C87.6581 140.384 87.6581 138.284 87.6581 135.359C75.3853 137.459 72.7982 130.659 72.7982 130.659C71.9352 128.516 70.1188 126.694 67.6872 125.534C63.6803 123.384 68.0027 123.409 68.0027 123.409C69.4022 123.565 70.7381 123.973 71.9082 124.602C73.0784 125.23 74.0519 126.062 74.7543 127.034C75.9764 128.77 78.0189 130.052 80.4327 130.595C82.8466 131.139 85.4342 130.901 87.6266 129.934C87.8047 128.16 88.7916 126.498 90.403 125.259C80.6226 124.359 70.3058 121.359 70.3058 107.959C70.2343 104.478 71.8619 101.111 74.849 98.5587C73.4969 95.5441 73.655 92.2336 75.2906 89.3087C75.2906 89.3087 78.982 88.3587 87.4373 92.8837C94.6668 91.321 102.293 91.321 109.522 92.8837C117.946 88.3587 121.637 89.3087 121.637 89.3087C123.273 92.2336 123.431 95.5441 122.079 98.5587C125.066 101.111 126.694 104.478 126.622 107.959C126.622 121.409 116.305 124.359 106.462 125.234C107.516 126.081 108.329 127.097 108.846 128.214C109.363 129.331 109.572 130.522 109.459 131.709V141.309C109.459 141.309 110.248 143.334 112.614 142.984C122.574 140.35 131.024 134.991 136.449 127.867C141.874 120.744 143.92 112.322 142.218 104.112C140.517 95.9014 135.18 88.4401 127.164 83.0656C119.149 77.6911 108.98 74.7549 98.4797 74.7837Z" fill="white"/>
<g filter="url(#filter0_i_302_130)">
<path d="M235.613 128.096C230.704 128.096 228.25 124.581 228.25 117.549V102.725C228.25 96.3058 231.062 93.0962 236.688 93.0962C239.005 93.0962 240.783 93.5649 242.02 94.5024C243.257 95.4269 244.109 96.7811 244.578 98.5649C245.047 100.349 245.281 102.523 245.281 105.088H238.562V102.042C238.562 101.299 238.458 100.681 238.25 100.186C238.055 99.6782 237.638 99.4243 237 99.4243C236.206 99.4243 235.678 99.6912 235.418 100.225C235.171 100.759 235.047 101.345 235.047 101.983V118.643C235.047 119.568 235.164 120.323 235.398 120.909C235.646 121.482 236.121 121.768 236.824 121.768C237.553 121.768 238.035 121.482 238.27 120.909C238.517 120.323 238.641 119.555 238.641 118.604V113.702H236.805V107.764H245.203V127.784H242.449L241.277 124.893C240.079 127.028 238.191 128.096 235.613 128.096ZM247.781 96.6899V90.8696H254.773V96.6899H247.781ZM247.781 127.784V98.4868H254.773V127.784H247.781ZM261.277 127.784L256.57 98.4868H263.582L265.262 118.057L267.156 98.4868H274.148L269.363 127.784H261.277ZM284.188 128.096C282.104 128.096 280.444 127.706 279.207 126.924C277.97 126.143 277.085 125.017 276.551 123.545C276.017 122.074 275.75 120.303 275.75 118.233V106.456C275.75 103.734 276.531 101.677 278.094 100.284C279.656 98.8774 281.805 98.1743 284.539 98.1743C290.164 98.1743 292.977 100.935 292.977 106.456V108.584C292.977 111.163 292.951 112.894 292.898 113.78H282.742V119.444C282.742 119.965 282.775 120.479 282.84 120.987C282.905 121.482 283.048 121.892 283.27 122.217C283.504 122.543 283.875 122.706 284.383 122.706C285.112 122.706 285.568 122.393 285.75 121.768C285.932 121.13 286.023 120.303 286.023 119.288V116.475H292.977V118.135C292.977 120.323 292.703 122.159 292.156 123.643C291.622 125.114 290.711 126.228 289.422 126.983C288.146 127.725 286.401 128.096 284.188 128.096ZM282.703 110.303H286.023V106.358C286.023 105.303 285.893 104.548 285.633 104.092C285.372 103.624 284.982 103.389 284.461 103.389C283.901 103.389 283.465 103.611 283.152 104.053C282.853 104.496 282.703 105.264 282.703 106.358V110.303ZM310.223 128.096C308.595 128.096 307.352 127.719 306.492 126.963C305.646 126.208 305.066 125.173 304.754 123.858C304.441 122.543 304.285 121.052 304.285 119.385C304.285 117.601 304.461 116.143 304.812 115.01C305.164 113.864 305.763 112.927 306.609 112.198C307.469 111.469 308.647 110.85 310.145 110.342L314.48 108.858V105.85C314.48 104.275 313.966 103.487 312.938 103.487C312 103.487 311.531 104.125 311.531 105.401V107.159H304.734C304.721 107.055 304.715 106.924 304.715 106.768C304.715 106.599 304.715 106.41 304.715 106.202C304.715 103.285 305.398 101.221 306.766 100.01C308.146 98.7863 310.327 98.1743 313.309 98.1743C314.871 98.1743 316.271 98.4543 317.508 99.0142C318.745 99.561 319.721 100.375 320.438 101.456C321.167 102.536 321.531 103.871 321.531 105.459V127.784H314.578V124.307C314.24 125.531 313.68 126.469 312.898 127.12C312.117 127.771 311.225 128.096 310.223 128.096ZM312.977 122.667C313.549 122.667 313.94 122.426 314.148 121.944C314.357 121.462 314.461 120.941 314.461 120.381V112.217C313.497 112.608 312.749 113.103 312.215 113.702C311.681 114.288 311.414 115.153 311.414 116.299V120.069C311.414 121.801 311.935 122.667 312.977 122.667ZM341.629 128.096C335.848 128.096 332.957 125.167 332.957 119.307V116.983H339.988V120.42C339.988 121.084 340.118 121.605 340.379 121.983C340.639 122.361 341.056 122.549 341.629 122.549C342.645 122.549 343.152 121.788 343.152 120.264C343.152 118.988 342.885 118.038 342.352 117.413C341.818 116.775 341.167 116.163 340.398 115.577L336.668 112.706C335.496 111.794 334.604 110.831 333.992 109.815C333.38 108.799 333.074 107.387 333.074 105.577C333.074 103.897 333.471 102.51 334.266 101.417C335.073 100.323 336.134 99.509 337.449 98.9751C338.777 98.4412 340.21 98.1743 341.746 98.1743C347.423 98.1743 350.262 101.006 350.262 106.67V107.217H343.035V106.104C343.035 105.518 342.931 104.952 342.723 104.405C342.527 103.858 342.137 103.584 341.551 103.584C340.561 103.584 340.066 104.105 340.066 105.147C340.066 106.202 340.483 107.028 341.316 107.627L345.652 110.792C347.007 111.768 348.139 112.927 349.051 114.268C349.975 115.609 350.438 117.393 350.438 119.62C350.438 122.38 349.65 124.483 348.074 125.928C346.512 127.374 344.363 128.096 341.629 128.096ZM358.602 128.096C356.714 128.096 355.438 127.699 354.773 126.905C354.122 126.097 353.797 124.867 353.797 123.213V104.952H351.824V99.6196H353.797V93.4087H360.594V99.6196H362.566V104.952H360.594V121.573C360.594 122.055 360.672 122.393 360.828 122.588C360.984 122.784 361.284 122.881 361.727 122.881C362.039 122.881 362.319 122.855 362.566 122.803V127.569C362.41 127.621 361.922 127.719 361.102 127.862C360.281 128.018 359.448 128.096 358.602 128.096ZM370.145 128.096C368.517 128.096 367.273 127.719 366.414 126.963C365.568 126.208 364.988 125.173 364.676 123.858C364.363 122.543 364.207 121.052 364.207 119.385C364.207 117.601 364.383 116.143 364.734 115.01C365.086 113.864 365.685 112.927 366.531 112.198C367.391 111.469 368.569 110.85 370.066 110.342L374.402 108.858V105.85C374.402 104.275 373.888 103.487 372.859 103.487C371.922 103.487 371.453 104.125 371.453 105.401V107.159H364.656C364.643 107.055 364.637 106.924 364.637 106.768C364.637 106.599 364.637 106.41 364.637 106.202C364.637 103.285 365.32 101.221 366.688 100.01C368.068 98.7863 370.249 98.1743 373.23 98.1743C374.793 98.1743 376.193 98.4543 377.43 99.0142C378.667 99.561 379.643 100.375 380.359 101.456C381.089 102.536 381.453 103.871 381.453 105.459V127.784H374.5V124.307C374.161 125.531 373.602 126.469 372.82 127.12C372.039 127.771 371.147 128.096 370.145 128.096ZM372.898 122.667C373.471 122.667 373.862 122.426 374.07 121.944C374.279 121.462 374.383 120.941 374.383 120.381V112.217C373.419 112.608 372.671 113.103 372.137 113.702C371.603 114.288 371.336 115.153 371.336 116.299V120.069C371.336 121.801 371.857 122.667 372.898 122.667ZM384.148 127.784V98.4868H391.258V101.749C391.596 100.616 392.195 99.7303 393.055 99.0923C393.914 98.4543 394.995 98.1353 396.297 98.1353V103.975C395.724 103.975 395.04 104.04 394.246 104.17C393.452 104.288 392.755 104.457 392.156 104.678C391.557 104.887 391.258 105.121 391.258 105.381V127.784H384.148ZM415.906 128.096C410.073 128.096 407.156 125.069 407.156 119.014V107.256C407.156 104.496 407.931 102.295 409.48 100.655C411.03 99.0011 413.172 98.1743 415.906 98.1743C418.654 98.1743 420.802 99.0011 422.352 100.655C423.901 102.295 424.676 104.496 424.676 107.256V119.014C424.676 125.069 421.753 128.096 415.906 128.096ZM415.906 122.706C416.492 122.706 416.909 122.497 417.156 122.081C417.417 121.651 417.547 121.111 417.547 120.459V106.143C417.547 104.437 417 103.584 415.906 103.584C414.812 103.584 414.266 104.437 414.266 106.143V120.459C414.266 121.111 414.389 121.651 414.637 122.081C414.897 122.497 415.32 122.706 415.906 122.706ZM427.273 127.784V98.4868H434.266V102.217C434.526 101.097 435.008 100.147 435.711 99.3657C436.427 98.5715 437.417 98.1743 438.68 98.1743C440.711 98.1743 442.182 98.7993 443.094 100.049C444.018 101.299 444.48 103.012 444.48 105.186V127.784H437.586V105.909C437.586 105.336 437.469 104.808 437.234 104.327C437 103.832 436.596 103.584 436.023 103.584C435.49 103.584 435.092 103.773 434.832 104.151C434.585 104.515 434.428 104.978 434.363 105.538C434.298 106.084 434.266 106.631 434.266 107.178V127.784H427.273ZM463.816 128.096C458.908 128.096 456.453 124.581 456.453 117.549V102.725C456.453 96.3058 459.266 93.0962 464.891 93.0962C467.208 93.0962 468.986 93.5649 470.223 94.5024C471.46 95.4269 472.312 96.7811 472.781 98.5649C473.25 100.349 473.484 102.523 473.484 105.088H466.766V102.042C466.766 101.299 466.661 100.681 466.453 100.186C466.258 99.6782 465.841 99.4243 465.203 99.4243C464.409 99.4243 463.882 99.6912 463.621 100.225C463.374 100.759 463.25 101.345 463.25 101.983V118.643C463.25 119.568 463.367 120.323 463.602 120.909C463.849 121.482 464.324 121.768 465.027 121.768C465.757 121.768 466.238 121.482 466.473 120.909C466.72 120.323 466.844 119.555 466.844 118.604V113.702H465.008V107.764H473.406V127.784H470.652L469.48 124.893C468.283 127.028 466.395 128.096 463.816 128.096ZM475.984 96.6899V90.8696H482.977V96.6899H475.984ZM475.984 127.784V98.4868H482.977V127.784H475.984ZM491.766 128.096C489.878 128.096 488.602 127.699 487.938 126.905C487.286 126.097 486.961 124.867 486.961 123.213V104.952H484.988V99.6196H486.961V93.4087H493.758V99.6196H495.73V104.952H493.758V121.573C493.758 122.055 493.836 122.393 493.992 122.588C494.148 122.784 494.448 122.881 494.891 122.881C495.203 122.881 495.483 122.855 495.73 122.803V127.569C495.574 127.621 495.086 127.719 494.266 127.862C493.445 128.018 492.612 128.096 491.766 128.096ZM497.977 127.784V93.4087H505.164V101.397C505.542 100.303 506.121 99.4959 506.902 98.9751C507.684 98.4412 508.595 98.1743 509.637 98.1743C511.668 98.1743 513.146 98.8123 514.07 100.088C514.995 101.364 515.457 103.077 515.457 105.225V127.784H508.387V105.674C508.387 105.036 508.25 104.515 507.977 104.112C507.716 103.708 507.299 103.506 506.727 103.506C506.245 103.506 505.861 103.715 505.574 104.131C505.301 104.548 505.164 105.043 505.164 105.616V127.784H497.977ZM523.855 128.096C522.293 128.096 521.095 127.771 520.262 127.12C519.441 126.469 518.882 125.564 518.582 124.405C518.283 123.233 518.133 121.866 518.133 120.303V98.4868H525.164V119.483C525.164 120.655 525.255 121.475 525.438 121.944C525.62 122.4 526.049 122.627 526.727 122.627C527.456 122.627 527.911 122.302 528.094 121.651C528.289 121 528.387 120.16 528.387 119.131V98.4868H535.359V127.784H528.367V124.659C527.924 125.778 527.391 126.631 526.766 127.217C526.154 127.803 525.184 128.096 523.855 128.096ZM549.871 128.096C548.725 128.096 547.794 127.816 547.078 127.256C546.362 126.683 545.789 125.818 545.359 124.659V127.784H538.25V93.4087H545.359V101.612C545.789 100.531 546.382 99.6912 547.137 99.0923C547.905 98.4803 548.999 98.1743 550.418 98.1743C552.332 98.1743 553.68 98.8709 554.461 100.264C555.255 101.657 555.652 103.48 555.652 105.733V120.147C555.652 121.644 555.444 122.999 555.027 124.209C554.624 125.407 553.992 126.358 553.133 127.061C552.286 127.751 551.199 128.096 549.871 128.096ZM546.98 122.647C547.723 122.647 548.172 122.282 548.328 121.553C548.484 120.824 548.562 119.926 548.562 118.858V107.413C548.562 106.332 548.484 105.433 548.328 104.717C548.172 103.988 547.729 103.624 547 103.624C546.245 103.624 545.783 103.995 545.613 104.737C545.444 105.466 545.359 106.358 545.359 107.413V118.858C545.359 119.913 545.444 120.811 545.613 121.553C545.783 122.282 546.238 122.647 546.98 122.647ZM559.285 118.428L557.918 93.4087H564.91L563.543 118.428H559.285ZM557.918 127.764V121.944H564.91V127.764H557.918Z" fill="#EB8F8F"/>
</g>
<defs>
<filter id="filter0_i_302_130" x="228.25" y="90.8696" width="336.66" height="41.2266" filterUnits="userSpaceOnUse" color-interpolation-filters="sRGB">
<feFlood flood-opacity="0" result="BackgroundImageFix"/>
<feBlend mode="normal" in="SourceGraphic" in2="BackgroundImageFix" result="shape"/>
<feColorMatrix in="SourceAlpha" type="matrix" values="0 0 0 0 0 0 0 0 0 0 0 0 0 0 0 0 0 0 127 0" result="hardAlpha"/>
<feOffset dy="4"/>
<feGaussianBlur stdDeviation="2"/>
<feComposite in2="hardAlpha" operator="arithmetic" k2="-1" k3="1"/>
<feColorMatrix type="matrix" values="0 0 0 0 0 0 0 0 0 0 0 0 0 0 0 0 0 0 0.25 0"/>
<feBlend mode="normal" in2="shape" result="effect1_innerShadow_302_130"/>
</filter>
</defs>
</svg>
